 <svg  version="1.0" xmlns="http://www.w3.org/2000/svg"  width="1350.000000pt" height="1299.000000pt" viewBox="0 0 1350.000000 1299.000000"  preserveAspectRatio="xMidYMid meet">  <g transform="translate(0.000000,1299.000000) scale(0.100000,-0.100000)" fill="#1f1f38" stroke="none"> <path d="M5983 11887 c-110 -85 -158 -127 -145 -127 5 0 15 7 22 15 7 8 19 15 26 15 8 0 14 5 14 10 0 6 18 10 40 10 35 0 43 5 75 46 55 73 41 86 -32 31z"/> <path d="M6134 11859 c-19 -21 -19 -21 11 -17 19 2 31 10 33 21 5 24 -21 22 -44 -4z"/> <path d="M5981 11752 c-32 -22 -140 -128 -168 -166 -22 -29 -22 -46 0 -46 15 0 167 159 190 198 20 36 14 39 -22 14z"/> <path d="M6225 11753 c-25 -7 -76 -49 -68 -57 18 -18 105 19 117 49 6 15 -9 18 -49 8z"/> <path d="M6030 11590 c0 -5 -14 -13 -32 -18 -17 -4 -33 -13 -36 -20 -5 -17 57 -15 64 2 3 8 20 17 37 20 25 5 29 9 17 16 -20 13 -50 13 -50 0z"/> <path d="M6450 11545 c-7 -9 -11 -18 -8 -21 8 -7 58 14 58 26 0 15 -36 12 -50 -5z"/> <path d="M5924 11392 c-20 -13 -30 -43 -26 -73 4 -28 6 -29 41 -23 51 9 71 22 71 44 0 14 -7 20 -24 20 -15 0 -26 7 -29 20 -5 21 -15 25 -33 12z"/> <path d="M6743 11300 c-13 -5 -23 -17 -23 -26 0 -11 5 -14 16 -10 9 3 20 6 24 6 5 0 14 9 20 20 12 23 1 25 -37 10z"/> <path d="M5926 11231 c-10 -15 5 -41 23 -41 25 0 55 25 47 38 -8 14 -62 16 -70 3z"/> <path d="M6740 11221 c0 -6 -7 -11 -16 -11 -8 0 -30 -16 -48 -36 -33 -36 -35 -37 -116 -40 -79 -3 -85 -5 -119 -37 -43 -40 -102 -77 -124 -77 -9 0 -31 -15 -49 -33 -30 -30 -41 -34 -128 -45 -54 -7 -132 -25 -180 -43 -47 -17 -105 -38 -130 -47 -54 -19 -144 -105 -166 -159 -9 -21 -24 -47 -34 -58 -10 -11 -38 -59 -64 -106 -61 -115 -112 -282 -136 -444 -6 -44 -15 -98 -20 -120 -5 -22 -14 -101 -20 -175 -6 -74 -13 -136 -16 -139 -15 -16 -26 30 -29 121 -4 174 -22 206 -95 173 -38 -17 -80 -57 -80 -75 0 -4 10 -10 23 -14 29 -7 97 -71 97 -90 0 -8 -8 -20 -19 -25 -17 -9 -50 -81 -66 -141 -18 -68 -38 -109 -58 -114 -19 -5 -20 -10 -14 -108 8 -119 21 -171 72 -286 34 -77 37 -91 39 -189 3 -97 5 -108 26 -125 27 -22 46 -23 84 -3 33 18 57 6 49 -24 -3 -11 7 -32 26 -54 17 -19 31 -42 31 -50 0 -9 5 -19 10 -22 6 -3 10 -13 10 -21 0 -15 60 -151 81 -184 5 -8 13 -24 18 -35 5 -11 21 -31 35 -44 14 -14 26 -30 26 -37 0 -7 7 -17 16 -22 10 -5 17 -24 18 -50 3 -61 16 -64 16 -4 0 29 -4 52 -8 52 -10 0 -33 61 -26 71 3 5 12 9 21 9 11 0 14 6 9 24 -3 14 -1 28 5 31 13 9 97 -77 115 -119 18 -41 51 -82 59 -74 4 3 2 23 -4 43 -13 47 9 58 47 23 15 -14 36 -30 48 -36 27 -14 133 -5 162 14 20 13 22 20 16 63 -5 38 -3 49 9 54 21 8 95 -33 103 -56 3 -10 24 -36 46 -58 l41 -40 61 15 c56 15 62 15 73 0 15 -21 33 -9 33 21 0 34 15 39 28 10 13 -29 25 -26 93 20 25 17 67 39 95 48 27 10 66 27 87 38 l38 20 33 -20 c18 -11 48 -22 67 -23 30 -3 36 1 48 29 8 18 22 35 31 38 9 3 54 46 99 95 69 74 87 89 106 84 43 -11 34 12 -13 33 -81 36 -182 53 -367 60 l-177 6 -29 31 c-35 37 -37 58 -6 71 16 7 21 17 19 36 -4 40 23 55 163 89 72 18 155 45 185 61 30 16 68 34 83 39 16 6 27 16 25 23 -14 42 -358 73 -461 41 -114 -35 -178 -65 -268 -126 -31 -21 -61 -38 -67 -38 -6 0 -19 -12 -29 -26 -16 -22 -22 -24 -44 -15 -34 12 -79 54 -79 73 0 8 11 25 25 38 30 28 32 46 5 55 -24 8 -24 8 -2 68 24 64 34 72 93 74 l51 1 -4 -36 c-4 -30 0 -42 19 -59 30 -29 34 -29 66 1 43 40 109 55 242 53 l120 -1 51 37 c53 38 118 51 127 25 3 -9 22 -4 64 19 38 21 67 30 81 26 13 -3 22 -1 22 6 0 6 -4 11 -9 11 -5 0 -16 6 -23 13 -23 22 -84 55 -117 62 -18 4 -48 24 -68 46 -24 26 -45 39 -62 39 -28 0 -54 24 -73 66 -6 13 -19 24 -29 24 -22 0 -111 -33 -161 -61 -42 -23 -66 -16 -93 25 -14 21 -14 27 4 68 33 78 113 111 186 78 24 -11 52 -20 62 -20 23 0 108 81 144 137 17 25 44 48 72 62 25 12 48 28 50 35 8 21 -22 154 -44 195 -10 19 -19 50 -19 68 0 76 -72 183 -123 183 -31 0 -116 -78 -149 -137 -17 -30 -42 -62 -56 -71 -14 -9 -55 -44 -91 -78 -74 -69 -188 -141 -236 -150 -19 -3 -52 1 -79 10 -26 9 -58 16 -72 16 -30 0 -124 39 -124 51 0 5 16 9 35 9 33 0 110 24 129 41 5 5 4 14 -3 23 -10 12 -8 16 9 21 31 10 13 25 -30 25 -21 0 -42 5 -45 10 -4 7 -12 7 -25 0 -10 -5 -35 -10 -54 -10 -20 0 -53 -6 -73 -14 -47 -18 -170 -30 -177 -17 -3 5 0 11 8 14 8 3 12 15 9 29 -3 15 2 29 11 37 9 8 16 19 16 25 0 31 95 104 276 212 16 10 17 13 5 27 -7 9 -31 22 -52 27 -29 8 -42 19 -55 46 l-17 35 -17 -28 c-21 -34 -47 -57 -53 -46 -3 4 -7 21 -8 38 -4 25 0 31 26 38 17 5 37 13 45 18 81 47 83 48 165 38 57 -6 83 -5 93 3 18 15 124 18 227 6 141 -17 169 -19 227 -20 37 -1 59 -6 62 -15 3 -7 14 -13 24 -13 11 0 25 -7 32 -15 21 -25 45 -17 71 22 13 21 33 39 44 41 11 3 24 10 28 18 4 8 16 14 25 14 10 0 24 6 31 13 11 11 63 16 174 16 28 0 38 4 35 13 -3 7 -13 14 -24 16 -10 2 -45 26 -78 55 l-58 52 29 32 c17 18 48 36 72 43 23 6 50 19 61 30 10 10 27 21 38 24 17 6 31 32 32 58 0 4 -11 15 -24 24 -23 15 -27 14 -69 -11 -37 -21 -52 -24 -86 -19 -24 4 -52 2 -64 -4 -32 -15 -108 -34 -114 -29 -2 3 12 18 31 34 20 15 36 33 36 40 0 7 6 16 13 20 21 13 49 64 43 79 -3 8 -15 14 -26 14 -17 0 -20 -4 -15 -20 5 -14 2 -20 -9 -20 -9 0 -16 8 -16 18 -1 21 -16 41 -57 70 -38 26 -46 27 -76 8 -15 -10 -36 -13 -65 -9 -42 6 -42 6 -27 30 18 27 17 64 -2 71 -7 2 -13 -1 -13 -7z m90 -164 c0 -13 -6 -29 -12 -35 -10 -10 -10 -15 2 -22 27 -17 3 -20 -50 -7 l-52 14 48 36 c58 43 64 44 64 14z m-30 -206 c0 -10 -7 -24 -15 -31 -8 -7 -15 -24 -15 -37 0 -34 -24 -24 -30 13 -4 20 -12 30 -28 32 -35 5 -26 18 21 29 62 15 67 15 67 -6z m-1425 -1310 c6 -20 -3 -200 -11 -213 -3 -4 -16 -8 -29 -8 -28 0 -41 33 -31 78 4 15 11 52 17 82 13 73 40 104 54 61z m1443 -134 c12 -18 22 -44 22 -56 0 -22 -3 -23 -38 -18 -21 2 -61 15 -89 29 -48 23 -50 23 -79 6 -16 -10 -35 -18 -43 -18 -8 0 -22 -7 -32 -16 -32 -29 -43 -5 -12 26 22 23 32 26 47 18 18 -10 35 2 36 25 0 4 8 7 18 7 9 0 26 7 36 15 11 8 40 15 65 15 41 0 49 -4 69 -33z"/> <path d="M6255 11201 c-3 -5 -1 -12 4 -15 13 -8 42 4 35 15 -7 12 -31 12 -39 0z"/> <path d="M6004 11117 c-28 -23 -64 -55 -80 -70 -16 -16 -47 -40 -68 -54 -63 -41 -120 -113 -89 -113 13 0 203 132 203 141 0 13 28 11 36 -3 4 -6 2 -14 -4 -16 -7 -2 -12 -8 -12 -14 0 -12 58 -1 87 18 12 8 29 14 36 14 8 0 20 7 28 16 9 11 22 14 47 9 29 -5 34 -4 29 9 -4 9 2 32 13 51 25 45 13 52 -62 36 -45 -10 -54 -9 -64 4 -18 24 -45 17 -100 -28z m99 -21 c7 -18 -1 -26 -25 -26 -21 0 -23 11 -6 28 16 16 25 15 31 -2z"/> <path d="M7323 10954 c-7 -19 0 -26 21 -18 20 8 21 20 1 28 -9 3 -18 -1 -22 -10z"/> <path d="M6071 10227 c-51 -26 -119 -82 -110 -91 4 -4 40 13 80 37 41 24 86 47 102 51 15 3 27 11 27 16 0 17 -54 10 -99 -13z"/> <path d="M7250 9878 c4 -13 20 -52 34 -87 14 -35 46 -96 71 -136 25 -40 45 -77 45 -81 0 -5 23 -35 50 -68 82 -94 182 -169 164 -121 -4 8 1 26 10 40 9 13 16 33 16 43 0 10 11 32 25 48 14 16 25 39 25 51 0 25 27 43 64 43 14 0 35 10 46 23 12 12 30 31 40 42 11 12 20 30 20 42 0 24 -50 70 -83 78 -46 10 -255 47 -317 55 -36 5 -94 18 -130 29 -84 27 -92 27 -80 -1z"/> <path d="M5794 7935 c-4 -8 -3 -30 0 -48 4 -17 11 -66 16 -108 5 -41 14 -95 19 -120 6 -24 11 -85 11 -136 0 -89 -2 -96 -45 -189 -25 -53 -45 -109 -45 -125 0 -36 47 -133 96 -201 49 -67 104 -109 209 -161 166 -82 282 -118 497 -152 177 -29 502 -9 643 40 22 7 52 16 68 19 29 7 36 30 13 43 -7 4 -69 60 -137 124 -192 179 -243 219 -329 253 -136 54 -175 89 -173 155 1 26 -4 44 -15 54 -37 32 -123 87 -135 87 -8 0 -39 27 -69 60 -36 38 -74 67 -104 81 -27 11 -56 27 -64 34 -9 8 -55 39 -104 70 -89 55 -146 71 -146 40 0 -8 -4 -15 -8 -15 -15 0 -82 65 -82 80 -1 16 -23 50 -34 50 -3 0 -6 -9 -6 -20 0 -26 -11 -25 -33 1 -11 12 -15 28 -12 40 13 39 -17 81 -31 44z m281 -245 c3 -5 -3 -10 -14 -10 -12 0 -21 5 -21 10 0 6 6 10 14 10 8 0 18 -4 21 -10z"/> <path d="M5620 7806 c0 -17 24 -38 33 -29 15 15 6 43 -13 43 -11 0 -20 -6 -20 -14z"/> <path d="M5141 7721 c-43 -40 -75 -114 -61 -140 7 -13 7 -22 0 -26 -13 -8 -13 -35 -1 -35 24 0 121 173 121 215 0 24 -25 18 -59 -14z"/> <path d="M4670 7633 c-21 -9 -48 -46 -43 -59 2 -7 -5 -17 -16 -24 -34 -18 -25 -33 15 -27 39 6 87 43 78 59 -3 5 0 16 7 24 10 13 10 17 -2 25 -16 10 -18 10 -39 2z"/> <path d="M5507 7033 c-4 -3 -7 -16 -7 -27 0 -30 -15 -49 -40 -51 -17 -1 -28 -15 -46 -56 -13 -30 -23 -63 -24 -74 0 -12 -4 -25 -9 -30 -4 -6 -20 -45 -35 -88 -25 -74 -80 -186 -131 -268 -70 -111 -144 -309 -190 -509 -10 -41 -21 -85 -26 -98 -5 -13 -13 -74 -19 -135 -11 -123 -23 -197 -39 -240 -6 -16 -11 -40 -11 -55 0 -36 -62 -274 -88 -337 -11 -27 -46 -129 -78 -225 -31 -96 -72 -212 -90 -258 -18 -46 -50 -138 -70 -205 -19 -67 -51 -170 -70 -229 -19 -59 -34 -123 -34 -142 0 -19 -5 -56 -10 -83 -6 -26 -17 -127 -26 -223 -8 -96 -20 -224 -26 -285 -15 -146 -14 -218 2 -285 22 -88 16 -258 -13 -370 -24 -92 -40 -217 -42 -330 -1 -30 -9 -80 -19 -110 -10 -30 -24 -75 -31 -100 -18 -61 -36 -112 -46 -132 -17 -34 -49 -138 -49 -158 0 -12 -5 -30 -10 -41 -10 -18 -17 -46 -40 -156 -5 -27 -14 -64 -20 -83 -5 -19 -17 -66 -25 -105 -19 -83 -31 -135 -84 -355 -74 -303 -104 -448 -130 -630 -44 -313 -66 -452 -81 -522 l-8 -38 1414 0 1414 0 4 23 c2 12 12 83 21 157 9 74 22 176 30 225 8 50 17 110 20 135 3 25 10 65 15 90 5 25 21 108 35 185 15 77 42 210 62 295 84 371 133 708 133 927 0 67 4 144 9 170 15 79 29 162 47 278 20 133 22 139 68 190 20 22 36 45 36 51 0 6 6 17 14 24 12 9 17 4 27 -32 9 -35 8 -56 -5 -113 -17 -74 -21 -191 -7 -213 13 -21 28 58 37 188 4 63 8 124 9 135 1 11 5 31 9 45 8 29 25 206 29 302 2 37 9 73 17 82 10 14 11 21 1 40 -10 18 -10 32 -1 66 6 24 13 60 15 81 2 21 10 53 18 71 22 52 29 106 17 128 -8 16 -6 30 10 67 15 35 19 57 14 94 -5 38 -2 55 17 88 20 35 21 44 10 65 -10 18 -10 32 -3 57 15 46 31 164 31 220 0 25 5 58 11 73 13 35 13 133 0 141 -6 4 -10 -6 -10 -22 0 -16 -6 -37 -14 -48 -7 -11 -17 -35 -21 -52 -8 -38 -10 -39 -55 -17 l-33 17 6 61 c3 33 11 90 17 126 6 36 13 110 15 165 5 120 11 176 29 275 8 41 22 122 31 180 56 346 196 681 410 975 28 39 63 90 79 115 16 25 42 58 58 74 29 31 35 46 18 46 -5 0 -10 -4 -10 -10 0 -5 -9 -10 -20 -10 -18 0 -19 3 -8 23 6 12 15 42 19 67 4 25 13 65 19 90 9 34 9 54 0 80 -9 29 -9 47 3 90 8 30 18 78 21 107 l5 52 -27 -10 c-15 -5 -36 -14 -47 -19 -115 -53 -190 -79 -275 -94 -41 -8 -99 -21 -127 -30 -159 -48 -180 -53 -428 -97 -95 -17 -163 -21 -330 -22 -303 -1 -457 31 -690 145 -153 75 -270 170 -408 332 -27 31 -54 56 -62 56 -7 0 -25 14 -38 30 -27 32 -30 34 -40 23z m1057 -1802 c3 -5 -4 -20 -15 -35 -13 -17 -18 -33 -14 -47 5 -14 0 -27 -15 -41 -14 -13 -19 -26 -15 -37 17 -39 17 -51 0 -57 -9 -4 -21 -17 -26 -30 -12 -33 -28 -30 -35 6 -7 32 -14 36 -31 19 -15 -15 -40 -5 -46 18 -2 10 -3 3 -1 -15 3 -36 1 -37 -64 -46 -38 -6 -43 -4 -54 19 -10 21 -7 33 17 77 45 85 51 90 115 86 l55 -3 3 42 c2 29 8 43 20 46 31 8 101 7 106 -2z m-275 -327 c29 -49 27 -59 -13 -59 -24 0 -40 8 -54 25 l-20 25 20 23 c29 30 43 28 67 -14z m125 27 c3 -4 -1 -17 -9 -27 -15 -19 -15 -19 -30 0 -8 11 -15 23 -15 28 0 11 47 10 54 -1z m-106 -201 c12 -11 30 -20 40 -20 22 0 79 -27 87 -41 13 -21 -39 -26 -80 -8 -22 10 -48 19 -57 19 -21 0 -40 33 -32 54 8 21 16 20 42 -4z"/> <path d="M8340 6930 c-20 -26 -27 -40 -18 -40 8 0 24 18 37 40 12 22 20 40 17 40 -2 0 -19 -18 -36 -40z"/> <path d="M3948 6903 c-10 -2 -18 -8 -18 -13 0 -4 -26 -16 -57 -26 -32 -9 -69 -23 -83 -30 -14 -6 -45 -19 -70 -29 -43 -16 -76 -30 -130 -53 -14 -6 -55 -28 -92 -49 -59 -34 -87 -54 -160 -115 -12 -10 -25 -18 -30 -18 -5 0 -6 -5 -3 -10 6 -10 -64 -148 -91 -180 -23 -28 -180 -332 -216 -420 -25 -60 -38 -90 -76 -175 -23 -49 -48 -108 -55 -130 -16 -47 -43 -57 -56 -23 -19 50 -41 362 -29 398 5 14 24 39 41 56 18 17 50 51 71 75 22 24 52 52 68 61 15 10 28 23 28 30 0 7 21 31 46 53 70 60 128 125 150 168 8 15 19 27 24 27 6 0 10 5 10 10 0 11 -37 -7 -110 -54 -46 -30 -148 -118 -278 -241 -107 -101 -242 -281 -242 -323 0 -11 -14 -38 -30 -61 -73 -100 -173 -352 -187 -468 -3 -24 -9 -43 -14 -43 -4 0 -11 -17 -14 -37 -3 -21 -13 -50 -21 -65 -8 -14 -14 -37 -14 -51 0 -14 -5 -38 -11 -54 -10 -26 -29 -91 -49 -173 -4 -19 -18 -69 -30 -110 -24 -82 -46 -170 -59 -240 -14 -70 -41 -160 -66 -215 -49 -113 -63 -209 -47 -333 12 -86 3 -152 -22 -177 -9 -9 -16 -21 -16 -26 0 -12 27 -12 35 1 3 5 13 6 21 3 10 -4 15 -1 13 8 -1 8 0 21 4 29 15 41 22 86 26 188 1 13 13 36 29 52 37 38 61 85 52 100 -4 7 -3 25 3 40 8 22 8 32 -2 44 -9 11 -14 47 -15 105 0 92 15 136 52 147 9 3 38 15 64 26 25 11 55 18 66 16 19 -5 20 -3 23 55 0 6 -2 26 -4 42 -5 30 11 108 26 133 6 8 0 15 -17 22 -15 5 -26 17 -26 28 0 10 -5 23 -10 28 -16 16 -12 178 8 309 7 53 25 65 46 33 8 -13 8 -23 -1 -37 -6 -10 -8 -22 -3 -27 4 -5 11 -29 14 -54 16 -111 19 -126 27 -134 5 -6 9 -20 9 -33 0 -13 9 -27 23 -34 12 -6 30 -21 40 -33 17 -21 18 -20 11 19 -4 22 -11 49 -17 60 -6 11 -14 38 -18 60 -4 22 -12 58 -18 79 -5 22 -7 60 -4 86 3 26 1 56 -5 67 -15 28 -4 63 20 63 19 0 20 5 15 68 -8 82 3 146 24 150 27 5 59 -76 59 -150 0 -45 5 -69 14 -78 8 -6 17 -24 19 -38 3 -15 3 -4 1 23 -19 237 -17 259 26 410 5 17 18 68 30 115 27 110 47 152 68 148 15 -3 17 -18 16 -118 -1 -63 -6 -146 -12 -185 -12 -77 -20 -751 -9 -762 4 -3 10 -4 13 0 7 7 22 119 31 242 4 66 14 108 35 157 15 37 28 81 28 99 0 34 48 161 103 274 60 124 84 179 102 235 10 30 21 60 25 65 4 6 18 44 31 85 13 41 49 125 80 185 48 94 59 110 80 110 20 0 24 -4 21 -25 -14 -143 -22 -191 -32 -209 -6 -12 -10 -41 -8 -64 2 -23 6 -35 9 -27 3 8 12 31 19 50 7 19 16 69 20 110 4 41 12 88 19 103 6 16 11 43 11 61 0 27 8 39 51 72 27 21 78 63 112 93 34 29 78 64 97 76 19 13 55 42 78 65 39 38 46 41 59 28 13 -13 12 -17 -3 -32 -27 -27 -74 -99 -74 -114 0 -7 -22 -35 -50 -61 -66 -63 -180 -201 -180 -218 0 -7 6 -13 13 -13 17 0 161 131 246 225 88 97 161 165 178 165 6 0 24 12 40 26 15 14 40 28 55 31 16 3 31 10 34 14 9 15 44 10 50 -6 8 -21 31 -19 39 4 3 10 17 22 31 25 35 9 29 25 -36 101 -53 62 -68 70 -112 58z"/> <path d="M8280 6865 c0 -8 4 -15 9 -15 5 0 11 7 15 15 3 9 0 15 -9 15 -8 0 -15 -7 -15 -15z"/> <path d="M8226 6735 c-4 -11 -14 -34 -23 -51 -8 -18 -13 -40 -11 -50 6 -27 50 71 45 99 -3 21 -4 21 -11 2z"/> <path d="M3961 6661 c-6 -10 -8 -21 -4 -24 9 -10 43 12 43 28 0 21 -27 18 -39 -4z"/> <path d="M4212 6585 c-28 -30 -52 -55 -54 -55 -2 0 -73 -69 -158 -153 -149 -147 -226 -234 -280 -316 -14 -21 -44 -63 -68 -92 -97 -121 -149 -184 -182 -224 -19 -22 -46 -56 -60 -74 -14 -18 -47 -60 -75 -95 -27 -34 -76 -96 -108 -139 -69 -91 -87 -97 -87 -29 1 66 27 137 106 287 77 145 144 290 144 311 0 8 6 14 13 14 8 0 21 8 30 18 18 19 23 52 9 52 -19 0 -96 -103 -152 -205 -18 -33 -48 -80 -68 -104 l-35 -43 -13 23 -12 24 -6 -30 c-4 -17 -11 -43 -17 -60 -22 -62 -40 -150 -84 -410 -32 -187 -44 -252 -60 -315 -9 -36 -20 -86 -24 -113 -4 -26 -13 -53 -19 -59 -15 -15 -16 -102 -2 -93 6 3 10 23 10 43 0 20 7 46 15 56 8 11 15 26 15 34 0 8 6 28 14 45 8 18 24 66 35 107 20 69 49 142 72 180 5 8 12 22 15 30 22 56 38 90 43 90 4 0 45 51 91 113 105 139 244 306 271 325 30 21 34 8 11 -35 -11 -21 -76 -146 -143 -278 -66 -132 -131 -258 -143 -280 -12 -22 -37 -76 -55 -120 -61 -150 -192 -415 -249 -505 -64 -101 -81 -135 -88 -179 l-7 -42 27 11 c37 14 36 14 36 -20 0 -16 -4 -30 -10 -30 -5 0 -10 -14 -10 -31 0 -17 -6 -45 -14 -62 -15 -34 -30 -92 -45 -172 -5 -27 -17 -75 -26 -105 -9 -30 -22 -80 -29 -110 -7 -31 -21 -68 -30 -83 -13 -19 -20 -54 -23 -114 -2 -49 -11 -105 -19 -126 -8 -20 -14 -51 -14 -67 0 -16 -6 -47 -14 -67 -18 -50 -41 -140 -61 -238 -9 -44 -21 -98 -27 -120 -5 -22 -14 -70 -18 -108 -5 -37 -14 -82 -19 -100 -21 -62 -41 -159 -41 -193 0 -19 -6 -47 -14 -62 -7 -15 -23 -81 -35 -147 -13 -66 -27 -134 -32 -151 -5 -17 -9 -49 -9 -71 0 -22 -7 -60 -15 -83 -8 -23 -15 -58 -15 -76 0 -19 -6 -51 -14 -71 -12 -35 -23 -83 -62 -268 -9 -38 -20 -88 -25 -110 -6 -22 -14 -60 -18 -85 -9 -50 -24 -110 -48 -183 -17 -52 -25 -298 -10 -313 4 -5 20 7 35 26 15 19 34 42 42 50 26 26 100 157 100 177 0 21 52 73 73 73 27 0 37 -23 22 -50 -8 -14 -14 -34 -15 -44 0 -22 -42 -97 -76 -138 -12 -15 -25 -42 -29 -60 -4 -18 -13 -40 -20 -48 -25 -29 -61 -125 -56 -148 3 -18 -16 -75 -54 -157 -18 -38 -40 -91 -50 -117 -29 -82 -82 -132 -73 -68 3 17 1 33 -4 36 -4 3 -8 -16 -8 -43 -1 -26 -9 -66 -20 -88 -11 -22 -19 -61 -20 -86 0 -25 -7 -68 -15 -95 -8 -27 -15 -73 -15 -101 l0 -53 120 0 119 0 25 80 c14 43 30 106 35 139 5 33 15 70 22 82 6 13 17 48 24 78 23 98 75 272 94 310 10 20 26 68 35 106 9 39 28 97 41 130 14 33 29 87 34 120 10 67 51 178 90 245 5 8 19 49 31 90 12 41 26 85 31 98 12 30 12 82 -1 82 -5 0 -12 -12 -16 -27 -4 -16 -12 -32 -18 -38 -6 -5 -42 -48 -79 -95 -93 -119 -88 -113 -100 -101 -7 7 -5 16 7 30 20 22 66 116 66 134 0 7 17 46 38 87 22 41 42 96 45 122 6 44 23 92 46 128 22 34 72 182 96 280 14 58 34 125 44 150 25 63 70 195 85 255 8 28 23 77 36 110 12 33 27 85 34 115 27 116 39 156 53 187 9 18 13 39 10 48 -11 26 -48 34 -78 16 -29 -17 -92 -117 -103 -164 -4 -16 -17 -51 -30 -78 -19 -38 -24 -64 -23 -121 1 -72 -8 -103 -41 -141 -15 -17 -25 -39 -52 -117 -7 -19 -18 -48 -26 -63 -8 -16 -14 -34 -14 -40 0 -7 -7 -25 -16 -42 -61 -114 -94 -186 -94 -204 0 -12 -13 -45 -29 -74 -16 -28 -60 -133 -96 -232 -80 -215 -95 -238 -95 -144 0 36 5 70 11 76 5 5 19 45 30 88 10 43 23 83 28 89 5 6 12 40 16 76 4 36 16 99 27 140 11 41 23 93 28 115 5 22 18 66 30 97 11 32 20 65 20 73 0 9 9 35 21 58 12 23 29 76 39 117 33 140 43 175 56 210 7 19 20 67 27 106 8 39 22 82 30 95 9 14 32 66 51 116 18 51 45 106 59 122 14 17 28 44 32 61 6 29 10 32 49 34 12 1 29 21 48 56 46 87 77 127 178 232 79 83 96 106 102 141 4 23 21 59 37 82 31 43 61 122 61 158 0 12 11 60 24 107 44 154 97 333 128 430 16 52 40 130 53 173 13 43 35 101 49 129 14 27 26 55 26 61 0 7 6 23 13 37 7 14 21 48 31 75 10 28 28 60 39 72 20 23 41 56 52 83 56 134 70 156 61 90 -4 -25 -9 -64 -12 -87 -3 -23 -12 -47 -20 -54 -8 -6 -14 -21 -14 -32 0 -12 -6 -39 -14 -62 -12 -35 -25 -82 -56 -205 -5 -19 -18 -66 -29 -105 -10 -38 -34 -133 -51 -210 -18 -77 -36 -151 -40 -165 -5 -14 -16 -61 -25 -105 -9 -44 -22 -102 -30 -130 -14 -50 -24 -94 -50 -215 -7 -36 -23 -105 -34 -154 -12 -50 -21 -101 -21 -115 0 -23 -11 -79 -42 -211 -6 -25 -14 -68 -18 -96 -4 -28 -12 -60 -18 -70 -5 -11 -12 -51 -15 -91 -3 -39 -10 -89 -16 -110 -11 -42 -32 -146 -56 -268 -9 -44 -21 -100 -27 -125 -6 -25 -14 -65 -19 -90 -8 -48 -30 -145 -48 -220 -6 -25 -18 -81 -26 -125 -9 -44 -23 -105 -30 -135 -8 -30 -21 -89 -29 -130 -8 -41 -20 -97 -26 -125 -6 -27 -15 -84 -20 -126 -4 -42 -13 -92 -19 -110 -16 -52 -38 -138 -51 -204 -6 -33 -18 -91 -26 -130 -8 -38 -19 -92 -24 -120 -4 -27 -18 -86 -30 -130 -12 -44 -28 -102 -35 -130 -7 -27 -23 -81 -35 -120 -12 -38 -25 -90 -30 -115 -17 -84 -50 -188 -91 -287 -22 -54 -50 -120 -61 -148 -11 -27 -24 -54 -29 -59 -20 -22 -3 -26 110 -26 l119 0 7 40 c4 26 16 47 33 61 23 18 25 23 13 40 -9 15 -9 24 -1 34 8 10 8 15 0 20 -7 4 -9 17 -6 29 3 11 1 28 -4 35 -10 17 14 71 31 71 5 0 18 -13 27 -30 9 -16 25 -30 34 -30 18 0 33 33 23 50 -4 6 -4 34 0 61 6 40 12 52 30 59 18 7 24 19 29 57 19 142 39 250 48 268 6 10 17 51 25 89 8 39 19 78 24 87 5 10 15 61 24 116 8 54 22 121 30 148 9 28 18 63 21 80 7 49 15 69 40 94 13 13 24 30 24 37 0 25 -39 79 -57 79 -14 0 -18 8 -18 39 0 46 20 59 29 20 7 -27 7 -27 26 -8 24 24 69 247 74 367 5 101 13 168 32 274 11 61 13 87 4 102 -7 14 -7 26 -1 38 9 16 28 195 36 336 8 148 61 370 102 432 7 11 13 34 13 52 0 17 5 44 12 60 6 15 13 55 14 88 4 82 14 158 24 170 4 6 11 46 14 90 11 127 15 145 35 145 9 0 26 7 37 15 22 17 54 20 54 5 0 -5 4 -10 8 -10 13 0 33 124 37 225 13 367 14 377 29 400 9 14 16 44 16 68 0 27 6 49 15 57 9 7 15 30 16 54 0 22 4 50 8 61 5 11 5 27 0 36 -6 11 -4 21 6 29 17 14 21 105 5 115 -15 9 -6 88 10 93 26 9 50 43 50 70 0 16 7 37 15 48 8 10 15 26 15 35 0 9 7 22 15 29 11 9 13 26 8 74 -5 58 -4 64 17 79 16 11 21 22 17 37 -7 29 18 113 41 134 12 10 17 25 15 40 -3 13 0 27 6 30 6 4 11 22 11 41 0 21 6 35 17 39 23 9 32 -11 26 -59 -4 -37 -2 -43 16 -48 16 -4 21 -13 21 -35 0 -17 -4 -33 -9 -37 -5 -3 -7 -30 -4 -60 3 -30 0 -75 -7 -102 -7 -26 -14 -61 -16 -78 -3 -29 -20 -68 -72 -170 -33 -62 -38 -159 -9 -179 21 -16 22 -32 1 -40 -15 -6 -15 -8 1 -26 18 -20 19 -20 52 12 28 26 33 39 29 60 -4 20 0 33 16 48 12 11 28 18 34 16 25 -10 54 24 54 64 0 33 4 39 30 49 49 17 50 66 2 66 -12 0 -16 7 -15 23 2 14 -3 22 -12 22 -19 0 -19 8 2 28 16 16 16 16 10 -1 -6 -15 -3 -18 16 -15 27 4 35 39 13 61 -22 22 -31 67 -15 77 19 13 29 2 29 -31 0 -37 27 -39 40 -3 15 40 12 54 -12 54 -42 0 -49 13 -46 80 2 38 8 65 15 67 16 6 46 -41 46 -72 0 -25 19 -33 43 -17 22 13 34 87 34 203 0 112 8 154 41 212 8 14 6 28 -8 55 -28 56 -24 322 7 447 12 50 22 105 24 124 1 19 7 36 14 39 7 2 12 18 12 35 0 49 -52 116 -91 117 -22 0 -71 -55 -110 -125 -18 -33 -51 -86 -72 -118 -21 -32 -55 -95 -76 -140 -21 -45 -46 -89 -56 -97 -17 -14 -17 -12 -12 20 2 19 12 53 20 75 45 114 57 152 57 178 l0 29 -23 -29 c-35 -42 -86 -124 -167 -268 -40 -71 -86 -150 -102 -174 -15 -25 -28 -48 -28 -51 0 -4 -33 -63 -72 -132 -40 -68 -81 -151 -91 -184 -11 -32 -24 -68 -30 -79 -29 -53 -37 -76 -56 -147 -12 -43 -21 -89 -21 -103 0 -30 -20 -99 -60 -205 -16 -41 -33 -91 -39 -110 -6 -19 -36 -107 -66 -194 -35 -98 -61 -194 -69 -250 -8 -50 -39 -188 -69 -306 -70 -269 -70 -269 -101 -327 -30 -57 -66 -137 -66 -146 0 -3 -12 -23 -26 -44 -14 -21 -43 -73 -65 -115 -21 -42 -43 -79 -49 -83 -6 -3 -17 -21 -24 -40 -8 -18 -24 -36 -35 -39 -62 -18 -57 -25 -53 81 1 53 7 102 11 108 4 5 9 34 10 64 1 30 4 58 7 62 2 4 6 35 9 69 5 71 13 102 25 95 4 -3 10 2 13 9 4 10 -2 16 -16 18 -20 3 -22 8 -19 68 6 151 66 398 123 506 16 31 29 62 29 69 0 20 39 101 55 115 8 7 15 20 15 29 0 9 11 43 24 76 13 33 29 78 36 100 7 22 28 65 47 96 19 31 40 77 48 103 8 26 24 61 36 77 12 17 26 49 31 71 5 22 24 73 42 112 43 89 146 331 175 411 13 33 29 72 37 87 11 21 12 33 4 48 -9 16 -8 22 5 26 8 3 15 12 15 18 0 11 23 49 83 135 9 14 24 41 33 60 8 19 21 39 27 46 7 6 55 65 107 129 52 65 130 153 173 196 42 43 77 82 77 87 0 4 32 42 70 82 59 63 84 101 66 101 -2 0 -26 -25 -54 -55z m64 -802 c-2 -3 -9 -2 -15 2 -8 4 -7 13 1 28 l13 22 3 -23 c2 -13 1 -26 -2 -29z m-71 -154 c-4 -5 1 -16 9 -25 14 -14 14 -18 1 -45 -21 -39 -55 -40 -55 -1 0 35 28 94 41 86 5 -3 7 -10 4 -15z"/> <path d="M8093 6397 c-7 -7 -26 -23 -43 -37 -16 -13 -30 -31 -30 -40 0 -9 -11 -22 -25 -28 -22 -10 -37 -52 -19 -52 15 0 134 133 134 150 0 23 -1 23 -17 7z"/> <path d="M4533 6328 c2 -7 0 -24 -5 -37 -5 -15 -3 -45 7 -86 12 -48 15 -91 11 -172 -19 -352 -19 -336 3 -323 25 13 28 68 9 149 -9 39 -9 59 1 88 14 42 30 153 38 255 4 58 2 71 -18 97 -23 32 -54 51 -46 29z"/> <path d="M11100 6175 c0 -14 4 -25 9 -25 12 0 23 29 15 41 -10 18 -24 9 -24 -16z"/> <path d="M11127 6014 c-6 -88 -2 -118 14 -93 11 18 11 150 0 167 -5 8 -10 -22 -14 -74z"/> <path d="M3185 5867 c-4 -10 -5 -21 -1 -24 10 -10 18 4 13 24 -4 17 -4 17 -12 0z"/> <path d="M9532 5812 c-19 -13 -50 -79 -57 -125 -11 -68 -113 -334 -142 -368 -7 -8 -13 -23 -13 -32 0 -9 -13 -26 -30 -39 -38 -28 -38 -38 0 -38 33 0 92 46 115 91 32 61 123 328 135 394 14 82 11 128 -8 117z"/> <path d="M4636 5625 c-10 -55 -24 -115 -32 -133 -16 -36 -19 -88 -6 -96 15 -9 64 214 60 274 l-3 55 -19 -100z"/> <path d="M10952 5580 c0 -19 2 -27 5 -17 2 9 2 25 0 35 -3 9 -5 1 -5 -18z"/> <path d="M8766 5585 c-9 -24 -7 -63 3 -69 5 -3 11 10 13 29 5 40 -6 66 -16 40z"/> <path d="M4715 5560 c-4 -6 -11 -43 -15 -83 -13 -111 -43 -258 -71 -352 -5 -17 -13 -57 -18 -90 -14 -86 -32 -159 -42 -169 -5 -6 -9 -19 -9 -30 0 -12 -6 -33 -14 -47 -7 -15 -24 -60 -36 -100 -12 -41 -26 -78 -29 -84 -29 -43 -70 -182 -136 -455 -7 -30 -21 -80 -30 -110 -9 -30 -23 -77 -30 -105 -7 -27 -29 -97 -48 -155 -48 -146 -67 -221 -98 -390 -6 -30 -14 -64 -19 -75 -13 -29 -31 -181 -39 -320 -3 -66 -10 -126 -15 -133 -4 -8 -12 -60 -16 -116 -5 -57 -13 -130 -19 -162 -6 -32 -15 -93 -21 -134 -23 -167 -30 -207 -39 -240 -5 -19 -15 -57 -21 -85 -6 -27 -18 -77 -26 -110 -26 -106 -50 -225 -85 -414 -5 -29 -14 -62 -19 -72 -6 -10 -10 -29 -10 -42 0 -14 -6 -47 -14 -73 -13 -44 -25 -103 -55 -259 -5 -27 -16 -75 -25 -105 -23 -74 -44 -161 -61 -245 -7 -38 -21 -95 -29 -125 -9 -30 -25 -91 -36 -135 -22 -87 -45 -167 -65 -230 -8 -22 -17 -56 -20 -75 -4 -19 -11 -39 -15 -45 -4 -5 -15 -37 -24 -70 -10 -33 -24 -75 -32 -92 l-14 -33 44 0 43 0 27 72 c40 113 73 214 133 422 59 203 66 231 108 426 15 69 33 150 40 180 8 30 33 136 56 235 66 288 109 466 123 520 8 28 17 68 21 90 3 22 13 59 21 82 42 129 64 345 69 688 4 344 18 559 40 620 7 22 26 85 41 140 15 55 45 145 66 200 22 55 45 120 52 145 8 25 37 108 65 185 28 77 71 199 95 270 24 72 71 202 104 290 75 199 117 361 161 615 21 124 33 318 19 326 -4 3 -8 16 -8 29 0 26 -15 41 -25 25z"/> <path d="M4581 5331 c-21 -40 -28 -91 -13 -91 10 0 47 119 39 126 -3 3 -15 -12 -26 -35z"/> <path d="M2514 5220 c3 -52 5 -96 6 -97 0 -2 4 -3 9 -3 18 0 21 33 10 99 -18 106 -30 107 -25 1z"/> <path d="M7744 5225 c-3 -25 -10 -47 -14 -50 -5 -3 -12 -40 -15 -83 -4 -42 -14 -97 -21 -122 -8 -25 -14 -72 -13 -105 0 -65 8 -57 28 29 6 27 23 73 37 102 16 34 25 71 26 104 0 27 4 53 9 56 14 8 11 48 -7 82 -8 18 -17 32 -19 32 -2 0 -7 -20 -11 -45z"/> <path d="M4535 5173 c-4 -21 -12 -54 -19 -73 -34 -90 -39 -109 -47 -160 -4 -30 -13 -72 -19 -93 -6 -21 -8 -47 -5 -57 4 -12 0 -26 -9 -36 -18 -17 -22 -84 -6 -84 6 0 10 9 10 19 0 10 9 38 19 62 14 32 18 56 14 86 -4 27 -2 43 5 43 12 0 26 54 23 93 -1 18 4 27 14 27 10 0 15 10 15 31 0 17 4 38 9 47 12 25 21 132 11 132 -5 0 -12 -17 -15 -37z"/> <path d="M4297 5025 c-7 -16 8 -29 23 -20 10 6 2 35 -10 35 -4 0 -10 -7 -13 -15z"/> <path d="M9420 4866 c0 -9 7 -16 16 -16 9 0 14 5 12 12 -6 18 -28 21 -28 4z"/> <path d="M8867 4843 c-15 -14 -6 -23 23 -23 32 0 40 14 14 24 -20 8 -29 8 -37 -1z"/> <path d="M8969 4843 c-1 -5 -2 -17 -3 -28 0 -12 -9 -21 -23 -23 -12 -2 -27 -10 -33 -18 -18 -21 -58 -17 -70 6 -18 33 -30 23 -30 -27 0 -40 -5 -51 -40 -87 -45 -47 -100 -147 -100 -182 0 -17 -6 -24 -20 -24 -18 0 -20 7 -20 55 0 57 -5 64 -32 43 -23 -19 -29 -60 -13 -92 8 -16 15 -39 15 -52 0 -26 18 -31 50 -14 23 12 40 -12 40 -56 0 -14 10 -42 21 -61 22 -34 22 -35 41 -15 17 17 18 22 6 41 -11 19 -11 23 4 32 15 8 17 21 14 74 -3 45 0 68 9 75 8 7 12 24 9 43 -5 28 1 39 40 79 26 26 73 65 106 87 58 39 60 39 152 39 77 0 101 -4 142 -24 27 -13 57 -24 67 -24 9 0 19 -9 22 -20 3 -11 15 -24 28 -28 31 -12 51 -88 56 -219 4 -90 2 -106 -18 -145 -52 -103 -163 -179 -262 -181 -45 -1 -48 -2 -45 -26 3 -25 5 -26 76 -25 137 2 257 63 283 142 6 20 24 48 40 62 29 26 40 63 42 145 3 70 -8 89 -44 81 -21 -4 -29 -2 -29 8 0 8 -3 22 -6 31 -5 11 0 18 15 22 29 7 27 44 -4 73 -14 13 -25 27 -25 32 0 21 -46 58 -72 58 -25 0 -29 4 -26 22 2 17 -5 27 -32 40 -19 9 -47 17 -61 18 -15 0 -32 6 -38 14 -11 13 -99 28 -157 26 -17 0 -37 6 -44 15 -13 16 -29 20 -31 8z"/> <path d="M8716 4735 c-15 -24 -15 -25 2 -25 21 0 42 18 42 37 0 22 -27 15 -44 -12z"/> <path d="M4218 4718 c-11 -25 -22 -36 -31 -32 -10 4 -16 -5 -21 -29 -6 -35 0 -67 14 -67 26 0 63 83 58 131 l-3 34 -17 -37z"/> <path d="M9564 4737 c-8 -22 11 -46 26 -31 7 7 5 17 -4 30 -14 18 -15 18 -22 1z"/> <path d="M7656 4724 c-10 -25 -7 -94 4 -94 6 0 10 25 10 55 0 57 -3 66 -14 39z"/> <path d="M7478 4717 c-5 -10 -8 -37 -7 -60 0 -38 1 -40 10 -17 6 13 9 40 7 60 -2 27 -5 31 -10 17z"/> <path d="M8646 4644 c-16 -16 -22 -64 -8 -64 4 1 17 9 30 20 17 14 22 25 17 40 -8 24 -18 25 -39 4z"/> <path d="M4396 4615 c-4 -11 -16 -38 -26 -60 -19 -42 -38 -111 -49 -180 -4 -23 -11 -47 -16 -55 -5 -8 -14 -44 -21 -80 -7 -36 -20 -92 -29 -125 -9 -33 -20 -80 -25 -105 -6 -25 -14 -54 -18 -65 -18 -42 -34 -92 -43 -132 -4 -23 -12 -50 -17 -60 -13 -26 -39 -118 -51 -183 -5 -30 -15 -77 -21 -103 -8 -32 -9 -52 -2 -59 6 -6 12 7 17 39 4 26 10 53 15 58 4 6 11 37 15 69 4 33 11 66 15 75 9 17 56 166 85 266 73 259 74 263 84 315 13 66 58 243 69 271 21 52 34 107 29 120 -3 10 -7 8 -11 -6z"/> <path d="M4085 4591 c4 -13 -1 -27 -14 -40 -21 -21 -29 -81 -11 -81 13 0 13 -37 1 -45 -6 -3 -10 -13 -11 -23 -4 -83 -14 -142 -26 -170 -8 -18 -13 -41 -9 -51 16 -52 13 -84 -12 -124 -30 -48 -40 -105 -23 -136 9 -17 14 -20 25 -11 15 12 23 42 37 135 4 33 10 69 12 80 3 11 5 34 5 51 1 20 14 47 36 75 19 24 35 54 35 66 0 12 5 25 11 29 7 4 9 28 6 66 -5 50 -3 62 14 79 28 28 24 42 -21 83 -45 40 -65 46 -55 17z"/> <path d="M9012 4559 c-16 -6 -20 -22 -26 -106 -4 -54 -9 -114 -12 -134 -9 -54 9 -65 115 -73 74 -6 96 -4 125 9 52 25 62 41 48 77 -9 26 -8 37 8 71 11 22 20 48 20 57 0 23 -69 90 -94 91 -12 0 -53 3 -93 7 -40 4 -81 5 -91 1z m176 -111 c7 -7 12 -29 12 -50 0 -31 -5 -40 -27 -51 -20 -10 -38 -11 -60 -5 -35 9 -39 23 -27 87 6 29 9 31 48 31 23 0 47 -5 54 -12z"/> <path d="M7848 4548 c-9 -7 -28 -42 -43 -77 -32 -77 -133 -235 -163 -254 -6 -4 -19 -22 -28 -38 -9 -19 -21 -29 -29 -25 -10 4 -16 -6 -20 -32 -4 -20 -13 -66 -20 -102 -8 -36 -19 -96 -25 -135 -23 -152 -32 -200 -41 -216 -5 -10 -9 -30 -9 -46 -1 -15 -12 -82 -26 -148 -14 -68 -31 -201 -39 -305 -8 -102 -19 -250 -25 -329 -5 -79 -12 -147 -15 -151 -2 -4 -9 -70 -15 -146 -11 -153 -24 -268 -46 -416 -8 -53 -14 -120 -14 -148 0 -28 -7 -81 -15 -118 -8 -37 -16 -98 -18 -137 -1 -38 -7 -77 -12 -85 -10 -16 -28 -127 -45 -265 -5 -44 -14 -107 -19 -140 -6 -33 -11 -82 -11 -108 0 -27 -5 -58 -11 -69 -10 -19 -25 -147 -45 -390 -4 -42 -4 -84 0 -95 7 -17 8 -17 22 1 8 11 14 30 14 43 0 26 38 142 53 161 22 27 26 95 8 142 -11 30 -15 56 -10 78 4 19 10 68 14 110 4 42 13 91 20 107 8 17 27 89 44 160 17 72 38 151 47 177 9 26 22 73 29 105 8 32 23 90 34 128 50 171 60 214 71 294 6 48 16 108 21 134 11 57 12 168 1 182 -4 6 -13 10 -21 10 -22 0 -24 21 -5 40 22 21 57 85 51 92 -3 2 1 28 9 56 9 35 14 106 13 222 -1 134 3 181 16 220 9 28 18 62 21 78 2 15 11 42 21 60 9 17 19 52 22 77 6 44 7 45 40 45 26 0 36 5 40 20 4 11 15 33 25 49 25 36 13 58 -40 70 -21 5 -41 11 -43 13 -11 8 60 65 74 59 30 -11 47 36 40 112 -7 62 -5 71 12 83 47 33 53 97 12 119 -16 9 -25 6 -49 -17 -113 -111 -151 -139 -175 -129 -27 10 -16 49 53 191 81 166 93 197 99 250 3 22 16 54 29 72 13 18 27 46 30 62 4 17 15 38 25 47 11 9 19 28 19 41 0 13 11 39 24 56 12 18 30 55 40 84 25 79 20 99 -16 71z"/> <path d="M2744 4455 c-12 -30 -13 -39 -3 -46 18 -11 26 -3 34 32 11 50 -11 60 -31 14z"/> <path d="M8780 4245 c0 -8 5 -15 10 -15 6 0 10 7 10 15 0 8 -4 15 -10 15 -5 0 -10 -7 -10 -15z"/> <path d="M2321 4199 c-13 -17 -26 -43 -31 -59 -7 -24 -4 -29 25 -43 l34 -16 20 34 c11 19 25 35 30 35 16 0 23 38 11 60 -17 32 -62 26 -89 -11z"/> <path d="M8985 4090 c-3 -5 8 -16 25 -25 27 -14 31 -14 36 -1 3 8 3 20 -1 26 -8 13 -52 13 -60 0z"/> <path d="M8910 3980 c0 -24 15 -27 24 -4 9 22 8 24 -9 24 -8 0 -15 -9 -15 -20z"/> <path d="M1953 3773 c-20 -27 -54 -67 -75 -90 -21 -24 -38 -51 -38 -62 0 -33 -11 -51 -41 -67 -16 -8 -29 -21 -29 -28 0 -7 -6 -19 -14 -25 -8 -6 -16 -22 -19 -34 -3 -12 -15 -47 -27 -77 -12 -30 -25 -68 -29 -85 -4 -16 -15 -44 -24 -61 -14 -26 -14 -34 -3 -43 14 -12 96 -6 131 9 11 5 46 16 77 25 39 10 61 23 69 38 7 12 27 46 46 74 41 62 67 149 54 178 -23 54 -30 115 -20 169 12 55 5 126 -11 126 -5 0 -26 -21 -47 -47z"/> <path d="M2137 3733 c-13 -13 -7 -53 15 -94 l21 -41 18 23 c25 33 24 71 -4 97 -24 23 -39 27 -50 15z"/> <path d="M4056 3369 c-9 -29 -14 -129 -6 -129 9 0 25 129 16 137 -3 3 -8 0 -10 -8z"/> <path d="M3013 3254 c-7 -3 -13 -17 -13 -31 0 -21 -2 -24 -15 -13 -12 10 -15 9 -15 -7 0 -17 9 -21 48 -26 58 -7 68 2 56 45 -9 32 -32 44 -61 32z"/> <path d="M4306 3234 c-3 -9 -4 -38 0 -64 4 -32 2 -50 -6 -55 -7 -4 -13 1 -17 14 -3 12 -9 21 -14 21 -15 0 -22 -49 -16 -107 3 -31 1 -80 -5 -110 -8 -41 -8 -57 1 -66 10 -9 20 -4 46 26 51 58 68 159 49 291 -9 59 -26 82 -38 50z"/> <path d="M3146 3214 c-10 -25 -7 -64 4 -64 15 0 34 46 27 64 -8 20 -23 20 -31 0z"/> <path d="M4026 3209 c-12 -58 -17 -161 -8 -155 11 6 28 164 19 173 -4 3 -8 -5 -11 -18z"/> <path d="M3103 3073 c-18 -6 -16 -43 1 -43 7 0 16 9 19 20 6 22 -1 30 -20 23z"/> <path d="M3030 3021 c0 -12 5 -21 10 -21 6 0 10 6 10 14 0 8 -4 18 -10 21 -5 3 -10 -3 -10 -14z"/> <path d="M3989 2928 c0 -55 -6 -93 -34 -216 -9 -40 -15 -94 -13 -120 3 -45 4 -44 21 40 9 48 17 100 17 117 0 16 4 40 9 53 15 40 24 178 12 178 -6 0 -11 -22 -12 -52z"/> <path d="M1660 2915 c0 -8 7 -15 15 -15 8 0 15 4 15 9 0 5 -7 11 -15 15 -9 3 -15 0 -15 -9z"/> <path d="M1612 2845 c-12 -27 -48 -45 -87 -45 -12 0 -26 -6 -29 -12 -3 -7 -15 -26 -26 -43 -22 -33 -22 -33 -39 -86 -17 -53 -14 -71 18 -120 31 -48 116 -133 143 -142 9 -3 22 1 28 9 7 8 30 14 54 14 23 0 48 6 54 12 10 10 17 10 32 0 31 -19 50 23 54 123 1 28 7 60 14 72 18 32 16 37 -34 84 -25 24 -66 70 -90 102 -49 62 -74 71 -92 32z"/> <path d="M1365 2542 c-17 -12 -48 -123 -37 -134 6 -6 11 1 15 19 5 27 9 29 41 25 32 -4 36 -2 36 19 0 29 -41 82 -55 71z"/> <path d="M3905 2389 c-6 -45 -2 -70 9 -58 11 11 18 109 8 109 -5 0 -13 -23 -17 -51z"/> <path d="M8052 2364 c-15 -10 -21 -22 -17 -34 4 -11 -2 -23 -17 -32 -25 -17 -48 -85 -48 -143 0 -19 -4 -35 -10 -35 -5 0 -10 -13 -10 -29 0 -17 -11 -39 -27 -57 -43 -44 -63 -77 -63 -102 0 -12 -7 -25 -15 -28 -8 -4 -15 -17 -15 -30 0 -19 -5 -24 -24 -24 -12 0 -36 -12 -51 -26 -27 -25 -28 -28 -21 -101 5 -66 3 -80 -15 -110 -12 -18 -18 -40 -15 -48 8 -23 49 -17 68 9 16 23 16 25 -2 41 -24 22 -26 52 -5 75 9 9 23 41 33 71 13 43 22 55 40 57 16 2 28 15 37 36 7 17 23 40 35 51 16 14 20 27 16 47 -4 23 -2 28 13 28 21 0 39 50 26 70 -12 19 5 60 28 69 27 11 73 135 64 171 -3 13 0 29 9 37 8 8 14 23 14 34 0 23 0 23 -28 3z"/> <path d="M7170 2319 c0 -24 4 -38 10 -34 6 3 10 22 10 41 0 19 -4 34 -10 34 -5 0 -10 -18 -10 -41z"/> <path d="M1290 2329 c0 -11 5 -17 10 -14 6 3 10 13 10 21 0 8 -4 14 -10 14 -5 0 -10 -9 -10 -21z"/> <path d="M3876 2190 c-4 -23 -13 -52 -21 -63 -8 -12 -15 -33 -15 -47 -1 -14 -7 -36 -15 -50 -8 -14 -14 -47 -15 -73 0 -27 -7 -70 -16 -97 -9 -26 -14 -58 -12 -69 7 -45 23 -19 39 61 30 154 50 243 65 295 10 34 12 59 6 69 -7 12 -11 6 -16 -26z"/> <path d="M1272 2198 c5 -15 28 -18 29 -3 0 6 -7 12 -17 13 -10 3 -15 -1 -12 -10z"/> <path d="M1180 2076 c-37 -46 -54 -58 -100 -71 -50 -16 -90 -44 -176 -125 -11 -11 -36 -26 -55 -34 -27 -12 -34 -20 -34 -43 0 -25 -3 -28 -31 -26 -55 5 -47 -21 19 -65 34 -23 87 -65 117 -94 74 -69 120 -102 120 -84 0 8 -19 29 -42 47 -61 46 -178 169 -178 185 0 20 33 17 61 -4 23 -18 118 -72 125 -72 11 0 1 23 -26 63 -66 99 -11 88 109 -21 48 -44 33 -3 -23 64 -31 36 -54 70 -50 75 3 6 11 6 17 2 7 -5 31 -22 54 -37 23 -16 45 -37 49 -48 3 -11 13 -27 20 -36 47 -54 123 -186 124 -216 1 -16 48 -71 55 -64 7 7 -33 115 -46 123 -8 5 -45 78 -101 198 l-17 38 24 9 c14 5 25 11 25 12 0 2 -11 36 -25 77 -14 41 -24 76 -21 78 2 2 15 -10 30 -27 l26 -31 26 20 c15 12 40 21 56 21 18 0 27 4 23 10 -4 6 -2 17 4 24 20 23 -6 60 -59 84 -26 12 -50 22 -52 22 -2 0 -24 -25 -48 -54z"/> <path d="M3756 1699 c-9 -47 -7 -59 8 -59 15 0 26 42 19 71 -8 28 -20 23 -27 -12z"/> <path d="M8772 1673 c-13 -24 -36 -238 -29 -257 4 -9 15 -16 26 -16 27 0 45 88 35 168 -5 31 -7 72 -6 90 2 35 -12 43 -26 15z"/> <path d="M3730 1585 c0 -14 5 -25 10 -25 6 0 10 11 10 25 0 14 -4 25 -10 25 -5 0 -10 -11 -10 -25z"/> <path d="M7623 1597 c-28 -46 -54 -110 -77 -194 -15 -54 -41 -127 -58 -163 -30 -65 -49 -172 -31 -183 29 -18 76 66 118 213 7 25 25 72 39 105 14 33 26 75 26 94 0 21 8 43 20 56 18 19 19 26 9 48 -14 30 -35 41 -46 24z"/> <path d="M3705 1449 c-10 -15 3 -25 16 -12 7 7 7 13 1 17 -6 3 -14 1 -17 -5z"/> <path d="M7988 1371 c-15 -12 -39 -47 -55 -79 -15 -31 -48 -89 -74 -127 -26 -39 -66 -109 -88 -155 -23 -47 -78 -155 -122 -240 -110 -209 -189 -369 -189 -381 0 -16 -107 -190 -179 -289 l-68 -95 101 -3 c96 -3 102 -2 122 22 12 13 35 59 53 102 17 44 43 102 57 129 88 169 125 242 133 255 13 22 65 151 104 260 62 168 84 224 117 282 17 32 45 94 61 139 16 44 36 94 45 111 8 16 14 43 12 60 l-3 30 -27 -21z"/> <path d="M64 1304 c-69 -31 -64 14 -64 -558 0 -488 1 -517 18 -512 9 2 31 7 47 11 17 3 51 19 75 35 25 17 52 30 61 30 10 0 48 15 85 34 112 55 216 103 258 117 21 8 45 24 53 36 27 41 51 141 45 185 -12 92 -163 348 -276 467 -52 55 -153 131 -175 131 -9 0 -27 6 -41 13 -45 24 -56 25 -86 11z"/> <path d="M3610 1073 c0 -10 -8 -31 -17 -48 -9 -16 -19 -52 -24 -80 -4 -27 -10 -61 -15 -75 -6 -22 -5 -23 8 -13 8 7 20 37 27 67 6 29 18 62 26 72 16 22 20 94 5 94 -5 0 -10 -8 -10 -17z"/> <path d="M8612 858 c-7 -7 -12 -22 -12 -34 0 -13 -4 -26 -10 -29 -5 -3 -8 -32 -6 -63 2 -41 -2 -67 -15 -92 -21 -38 -24 -66 -10 -74 8 -5 53 83 58 114 18 117 23 143 33 155 15 19 -21 40 -38 23z"/> <path d="M7208 619 c-9 -5 -19 -23 -23 -39 -4 -16 -11 -33 -16 -36 -6 -3 -14 -17 -20 -30 -7 -21 -12 -23 -28 -14 -29 15 -31 13 -31 -30 0 -21 -8 -61 -19 -87 -36 -92 -69 -385 -40 -356 6 6 13 30 16 54 5 52 41 128 101 219 49 76 92 200 92 270 0 53 -7 63 -32 49z"/> <path d="M12650 591 c-190 -27 -432 -147 -542 -270 -46 -51 -110 -171 -127 -236 -6 -22 -13 -50 -16 -62 l-6 -23 493 0 493 0 48 49 c33 33 50 59 53 83 6 36 3 41 -41 73 -14 10 -16 17 -9 22 7 5 18 28 25 53 7 25 25 59 41 75 30 33 37 69 15 82 -14 8 -31 49 -41 95 -5 20 -16 30 -53 43 -55 19 -246 28 -333 16z"/> <path d="M2142 560 c0 -19 2 -27 5 -17 2 9 2 25 0 35 -3 9 -5 1 -5 -18z"/> <path d="M8507 482 c-9 -21 -17 -42 -17 -46 0 -14 -60 -135 -71 -141 -6 -4 -8 -17 -5 -30 5 -21 -22 -86 -60 -139 -8 -11 -14 -30 -14 -41 0 -11 -9 -35 -20 -53 l-20 -32 38 0 c37 0 39 1 54 53 9 28 19 66 23 84 3 18 17 43 31 55 13 13 24 29 24 37 0 8 12 43 26 79 14 35 27 75 28 88 2 13 11 33 21 44 15 16 17 26 9 47 -14 39 -28 38 -47 -5z"/> <path d="M6871 418 c-13 -34 -2 -42 20 -14 23 29 24 36 4 36 -9 0 -19 -10 -24 -22z"/> <path d="M6847 133 c-4 -3 -7 -16 -6 -27 0 -19 1 -19 10 3 10 24 8 36 -4 24z"/> </g> </svg> 