<?xml version="1.0" standalone="no"?>
<!DOCTYPE svg PUBLIC "-//W3C//DTD SVG 20010904//EN"
 "http://www.w3.org/TR/2001/REC-SVG-20010904/DTD/svg10.dtd">
<svg version="1.0" xmlns="http://www.w3.org/2000/svg"
 width="800.000000pt" height="800.000000pt" viewBox="0 0 800.000000 800.000000"
 preserveAspectRatio="xMidYMid meet">

<g transform="translate(0.000000,800.000000) scale(0.100000,-0.100000)"
fill="#000000" stroke="none">
<path d="M3675 7559 c-663 -62 -1316 -326 -1840 -745 -130 -104 -356 -322
-464 -449 -466 -544 -754 -1224 -820 -1935 -16 -165 -13 -511 4 -675 71 -667
327 -1294 740 -1807 168 -210 207 -237 294 -202 58 23 75 59 101 213 87 535
368 1032 782 1386 98 84 240 190 265 197 6 2 50 -29 99 -68 259 -208 558 -338
895 -390 124 -19 386 -21 509 -5 202 28 391 86 575 176 144 70 240 131 360
228 92 75 75 77 207 -22 317 -235 575 -548 739 -896 66 -141 141 -368 174
-525 l25 -125 -109 -106 c-501 -487 -1163 -796 -1868 -873 -163 -18 -490 -21
-644 -6 -393 39 -742 139 -1108 316 -95 46 -184 84 -198 84 -102 0 -168 -118
-114 -207 50 -81 510 -279 857 -368 463 -119 997 -139 1478 -55 1526 267 2695
1548 2836 3108 19 209 8 597 -23 802 -58 384 -162 713 -332 1052 -120 240
-328 557 -392 599 -17 12 -46 19 -76 19 -40 0 -53 -5 -85 -34 -35 -32 -37 -38
-37 -93 0 -57 2 -62 67 -148 304 -410 508 -903 590 -1432 21 -132 23 -182 23
-468 -1 -279 -4 -338 -23 -460 -79 -504 -266 -972 -550 -1373 -36 -50 -66 -91
-67 -90 -1 2 -17 52 -34 112 -162 554 -505 1044 -969 1383 -160 118 -258 173
-304 173 -52 0 -69 -10 -163 -98 -92 -85 -251 -195 -369 -254 -106 -53 -315
-121 -441 -144 -136 -24 -394 -24 -529 0 -313 56 -597 197 -823 409 -81 76
-100 87 -151 87 -94 0 -454 -265 -665 -491 -286 -305 -512 -706 -617 -1098
l-23 -84 -19 24 c-10 13 -56 80 -102 149 -287 429 -461 917 -516 1445 -15 134
-14 494 0 630 75 726 380 1384 880 1899 530 546 1195 875 1940 961 175 20 543
20 710 0 351 -41 673 -129 976 -269 65 -30 115 -46 140 -46 107 0 169 123 106
210 -23 31 -145 91 -335 164 -301 116 -596 184 -932 216 -127 12 -498 11 -630
-1z"/>
<path d="M3860 6444 c-158 -20 -341 -74 -464 -136 -178 -90 -400 -283 -504
-439 -109 -164 -185 -348 -218 -531 -25 -138 -23 -364 5 -498 89 -424 357
-766 745 -950 213 -102 323 -125 586 -125 182 0 203 2 305 29 529 136 907 537
1011 1072 23 119 23 346 0 474 -74 411 -348 778 -725 967 -97 49 -235 97 -341
118 -75 15 -334 27 -400 19z m322 -279 c698 -124 1090 -874 793 -1512 -137
-293 -386 -503 -702 -591 -89 -24 -113 -27 -273 -27 -152 0 -186 3 -260 23
-262 72 -481 226 -631 444 -248 363 -248 839 2 1209 87 130 237 265 379 342
83 45 223 94 320 112 98 17 275 18 372 0z"/>
</g>
</svg>
